<?xml version="1.0" encoding="utf-8"?>
<!-- Generator: Adobe Illustrator 23.0.3, SVG Export Plug-In . SVG Version: 6.00 Build 0)  -->
<svg version="1.1" id="레이어_1" xmlns="http://www.w3.org/2000/svg" xmlns:xlink="http://www.w3.org/1999/xlink" x="0px"
	 y="0px" viewBox="0 0 256 256" style="enable-background:new 0 0 256 256;" xml:space="preserve">
<g>
	<g>
		<path d="M229.47,21.07c-0.03-0.3-0.2-0.56-0.46-0.71c-0.26-0.15-0.57-0.16-0.85-0.04c-29.7,13.54-55.23,9.27-71.41,3.31
			c-17.57-6.47-28.26-16.29-28.36-16.39c-0.36-0.33-0.89-0.33-1.25,0c-0.11,0.1-10.79,9.92-28.36,16.39
			c-16.18,5.96-41.71,10.22-71.41-3.31c-0.27-0.12-0.59-0.11-0.85,0.04c-0.26,0.15-0.43,0.41-0.46,0.71
			c-0.08,0.74-7.53,75.2,11.44,135.74c0.07,0.2,6.19,17.4,20.27,37.32c13,18.4,35.64,42.98,69.68,55.6c0.21,0.08,0.42,0.08,0.63,0
			c34.05-12.62,56.68-37.2,69.68-55.6c14.07-19.92,20.2-37.11,20.26-37.29C236.99,96.27,229.55,21.82,229.47,21.07z M216.26,156.26
			c-0.05,0.14-6.11,17.13-20.05,36.85c-12.8,18.1-35.06,42.27-68.45,54.75c-33.39-12.49-55.65-36.65-68.45-54.75
			c-13.94-19.72-20-36.71-20.06-36.88c-10.52-33.57-12.85-71.49-12.85-98.57c0-18.02,1.03-31.2,1.38-35.15
			c29.8,13.16,55.4,8.85,71.7,2.83c15.49-5.72,25.72-13.99,28.27-16.18c2.55,2.2,12.79,10.46,28.27,16.18
			c16.31,6.02,41.91,10.33,71.7-2.83c0.35,3.95,1.38,17.12,1.38,35.13C229.12,84.73,226.78,122.66,216.26,156.26z"/>
		<polygon points="127.76,15.06 127.76,15.07 127.77,15.06 		"/>
		<polygon points="127.77,243.94 127.76,243.94 127.76,243.94 		"/>
		<path d="M119.85,153.3c-1.41,0-2.52,0.38-3.31,1.14c-0.72,0.72-1.09,1.64-1.09,2.76c0,1.1,0.36,2.01,1.09,2.72
			c0.79,0.76,1.9,1.14,3.31,1.14c1.45,0,2.59-0.38,3.42-1.14c0.76-0.72,1.14-1.63,1.14-2.72c0-1.14-0.38-2.06-1.14-2.76
			C122.43,153.68,121.3,153.3,119.85,153.3z"/>
		<rect x="119.8" y="42.01" width="17.9" height="2.66"/>
		<path d="M127.76,15.07c-0.31,0.27-42.55,37.28-97.02,12.45c0,0-5.06,69.91,12.94,127.35c0,0,22.49,66.22,84.09,89.06
			c61.59-22.84,84.09-89.06,84.09-89.06c18-57.45,12.94-127.35,12.94-127.35C170.31,52.34,128.07,15.34,127.76,15.07z M108.36,37.03
			h40.77v12.61h-33.79c-2.28,0-4.02-0.39-5.23-1.18c-1.17-0.78-1.76-1.91-1.76-3.36V37.03z M106.6,51.29h44.29v5.18h-14.95v4.91
			h-11.38v-4.91H106.6V51.29z M149.29,64.01v5.25h-33.94c-2.28,0-4.02-0.39-5.23-1.18c-1.17-0.78-1.76-1.91-1.76-3.36v-5.95h11.43
			v5.25H149.29z M110.69,84.77c2.72-2.26,4.09-4.87,4.09-7.8v-2.56h11.02v2.62c0,2.74,1.16,5.18,3.47,7.33
			c1.97,1.82,4.66,3.32,8.07,4.51V74.41h11.43v7.94h4.76v5.52h-4.76v9.55h-11.43v-7.16l-3.98,3.09c-3.45-0.96-6.43-2.2-8.95-3.7
			c-2.04-1.23-3.4-2.39-4.09-3.46c-0.72,1.08-2.12,2.23-4.19,3.46c-2.52,1.5-5.48,2.74-8.9,3.7L102,89.28
			C105.58,88.11,108.48,86.61,110.69,84.77z M149.24,101.12v5.52h-32.08c-2.28,0-4-0.39-5.17-1.18c-1.17-0.78-1.76-1.91-1.76-3.36
			v-6.93h11.43v5.95H149.24z M99.64,196.64l-1.34,1.76c-0.04-0.03-0.08-0.06-0.12-0.09c-1.77,1.89-9.11,8.39-20.55,0.37
			c0,0,5.05-8.6,17.65-2.65c-5.64-4.57-10.35-9.25-14.28-13.97c-9.83,10.79-21.48-1.05-21.48-1.05c4.1-7.54,15.47-2.93,20.08-0.65
			c-3.56-4.5-6.42-9.04-8.69-13.54c-20.96,6.31-22.21-7.39-22.21-7.39c7.3-4.12,17.58,2.84,21.47,5.85
			c-2.68-5.66-4.45-11.27-5.5-16.72c-12.21,10.94-19.3-9.85-19.3-9.85c4.83-4.25,15.43,4.72,18.96,7.96
			c-0.79-4.78-1.04-9.41-0.91-13.84c-18.87,1.04-15.16-12.67-15.16-12.67c7.28-2.27,13.13,7.04,15.23,10.95
			c0.21-4.16,0.75-8.12,1.5-11.81c-17.07-7.12-8.34-17.48-8.34-17.48c7.55,3.48,8.73,11.27,8.82,15.24
			c0.98-4.29,2.22-8.17,3.49-11.54c-14.28-7.26-4.98-15.97-4.98-15.97c5.93,2.37,6.76,8.08,6.54,12.09c1.45-3.37,2.82-6,3.77-7.7
			c-2.57-13.46,13.2-15.59,13.2-15.59C89.88,88.93,81.16,92.76,76.78,94c-0.79,1.29-2.15,3.66-3.66,6.88
			c2.74-2.78,7.52-5.8,14.69-4.32c0,0-2.87,13.7-16.55,8.59c-1.21,3-2.42,6.46-3.43,10.3c2.43-3.59,7.64-7.89,18.1-5.14
			c0,0-2.52,10.88-19.08,9.25c-0.77,3.71-1.33,7.7-1.53,11.91c1.64-3.19,6.87-10.76,18.58-8.02c0,0,1.32,10.05-18.64,9.37
			c-0.13,4.41,0.14,9.05,0.98,13.82c2.73-3.58,10.01-11.58,18.06-7.22c0,0-2.34,15.71-17.62,9.53c1.14,5.39,3.02,10.95,5.85,16.56
			c0.35-2.89,2.36-12.66,13.4-13.13c0,0,5.39,10.18-13.04,13.84c2.09,4.04,4.7,8.1,7.87,12.15c0.35-4.14,1.97-13.03,9.55-14.22
			c0,0,5.65,10.83-8.24,15.85c3.82,4.64,8.43,9.25,13.94,13.77c-5.3-6.69,1.24-17.77,1.24-17.77c10.66,10.82,2.45,20.43,2.31,20.59
			C99.6,196.61,99.62,196.63,99.64,196.64z M120.51,230.92c-3.04,1.52-7.66-0.07-7.66-0.07c-8.98-2.97-0.63-7.21-0.63-7.21
			c6.33-4.3,7.91-8.1,7.91-8.1c4.43-5.44,4.87,0.69,4.87,0.69C124.87,226.93,120.51,230.92,120.51,230.92z M119.14,206.55
			c0.68,1.01,0.4,2.38-0.61,3.06c-1.01,0.68-2.38,0.41-3.06-0.61c-4.32-6.48-0.18-12.85,0-13.12c0.67-1.01,2.03-1.28,3.04-0.61
			c1.02,0.67,1.3,2.03,0.64,3.05C119.04,198.49,116.47,202.55,119.14,206.55z M130.33,207.55c0,1.22-0.99,2.21-2.21,2.21
			c-1.22,0-2.21-0.99-2.21-2.21v-9.79c0-1.22,0.99-2.21,2.21-2.21c1.22,0,2.21,0.99,2.21,2.21V207.55z M143.64,230.62
			c0,0-4.62,1.58-7.66,0.06c0,0-4.36-3.99-4.49-14.68c0,0,0.44-6.14,4.87-0.7c0,0,1.58,3.79,7.91,8.1
			C144.27,223.41,152.63,227.65,143.64,230.62z M137.04,198.36c-0.66-1.02-0.38-2.38,0.64-3.05c1.01-0.67,2.37-0.39,3.04,0.61
			c0.18,0.27,4.32,6.63,0,13.12c-0.68,1.01-2.05,1.29-3.06,0.61c-1.02-0.68-1.29-2.05-0.61-3.06
			C139.72,202.59,137.16,198.54,137.04,198.36z M149.34,181.39H137.9v-7.6h-28.56v-5.55h39.99V181.39z M149.34,166.45H137.9v-6.29
			h-3.78c-0.93,1.61-2.55,2.92-4.86,3.9c-2.59,1.08-5.73,1.61-9.42,1.61c-4.76,0-8.54-0.89-11.33-2.66
			c-2.52-1.59-3.78-3.53-3.78-5.82c0-2.33,1.26-4.29,3.78-5.89c2.79-1.77,6.57-2.66,11.33-2.66c3.83,0,7.05,0.57,9.68,1.72
			c2.38,1.05,4,2.47,4.86,4.24h3.52v-5.45h11.43V166.45z M150.89,133.62h-16.5v10.39h-11.33v-10.39H106.6v-5.55h44.29V133.62z
			 M148.46,125.34c-4.59-0.38-8.78-1.08-12.57-2.09c-3.69-1.01-6.07-2.04-7.14-3.09c-1.07,1.05-3.41,2.09-7.04,3.09
			c-3.83,1.01-8.04,1.7-12.62,2.09l-3.52-4.98c4.83-0.31,8.9-1.24,12.21-2.79c3.52-1.64,5.28-3.56,5.28-5.78h11.33
			c0,2.22,1.73,4.15,5.17,5.78c3.35,1.55,7.47,2.48,12.36,2.79L148.46,125.34z M207.27,159.42c0,0-1.25,13.7-22.21,7.39
			c-2.27,4.51-5.12,9.04-8.69,13.54c4.61-2.28,15.98-6.88,20.08,0.65c0,0-11.65,11.84-21.48,1.06c-3.93,4.72-8.65,9.4-14.28,13.97
			c12.59-5.95,17.65,2.65,17.65,2.65c-11.44,8.03-18.78,1.53-20.55-0.37c-0.04,0.03-0.08,0.06-0.11,0.09l-1.34-1.76
			c0.02-0.02,0.04-0.03,0.06-0.05c-0.14-0.17-8.34-9.78,2.31-20.59c0,0,6.54,11.08,1.24,17.77c5.51-4.52,10.11-9.14,13.94-13.77
			c-13.88-5.02-8.23-15.85-8.23-15.85c7.58,1.18,9.2,10.08,9.55,14.22c3.17-4.05,5.78-8.11,7.87-12.15
			c-18.43-3.67-13.04-13.84-13.04-13.84c11.05,0.48,13.05,10.24,13.41,13.13c2.83-5.61,4.71-11.17,5.85-16.56
			c-15.27,6.18-17.61-9.53-17.61-9.53c8.05-4.37,15.34,3.63,18.06,7.22c0.84-4.78,1.11-9.41,0.98-13.82
			c-19.96,0.67-18.64-9.37-18.64-9.37c11.71-2.74,16.94,4.83,18.58,8.02c-0.2-4.2-0.75-8.2-1.53-11.91
			c-16.56,1.63-19.08-9.25-19.08-9.25c10.46-2.75,15.67,1.55,18.1,5.14c-1.01-3.84-2.22-7.3-3.43-10.3
			c-13.68,5.11-16.55-8.59-16.55-8.59c7.16-1.48,11.94,1.54,14.69,4.32c-1.51-3.22-2.87-5.59-3.66-6.88
			c-4.39-1.24-13.11-5.07-10.72-15.66c0,0,15.77,2.14,13.21,15.59c0.95,1.7,2.32,4.33,3.77,7.7c-0.23-4.01,0.61-9.72,6.54-12.09
			c0,0,9.3,8.71-4.98,15.97c1.27,3.37,2.5,7.25,3.49,11.54c0.09-3.96,1.27-11.75,8.82-15.23c0,0,8.74,10.36-8.34,17.48
			c0.74,3.69,1.29,7.65,1.5,11.81c2.1-3.92,7.95-13.22,15.23-10.95c0,0,3.71,13.71-15.16,12.67c0.13,4.43-0.13,9.06-0.91,13.84
			c3.53-3.24,14.13-12.21,18.96-7.96c0,0-7.09,20.79-19.29,9.85c-1.05,5.45-2.82,11.06-5.5,16.72
			C189.69,162.27,199.97,155.31,207.27,159.42z"/>
	</g>
</g>
</svg>
